<?xml version="1.0" encoding="UTF-8" standalone="no"?>
<!DOCTYPE svg PUBLIC "-//W3C//DTD SVG 1.1//EN"
 "http://www.w3.org/Graphics/SVG/1.1/DTD/svg11.dtd">
<!-- Generated by graphviz version 2.50.0 (20220117.2223)
 -->
<!-- Pages: 1 -->
<svg width="134pt" height="131pt"
 viewBox="0.00 0.00 134.00 131.00" xmlns="http://www.w3.org/2000/svg" xmlns:xlink="http://www.w3.org/1999/xlink">
<g id="graph0" class="graph" transform="scale(1 1) rotate(0) translate(4 127)">
<polygon fill="white" stroke="transparent" points="-4,4 -4,-127 130,-127 130,4 -4,4"/>
<!-- 2 -->
<g id="node1" class="node">
<title>2</title>
<ellipse fill="none" stroke="black" cx="63" cy="-105" rx="27" ry="18"/>
<text text-anchor="middle" x="63" y="-101.3" font-family="Times,serif" font-size="14.00">2</text>
</g>
<!-- 1 -->
<g id="node2" class="node">
<title>1</title>
<ellipse fill="none" stroke="black" cx="27" cy="-18" rx="27" ry="18"/>
<text text-anchor="middle" x="27" y="-14.3" font-family="Times,serif" font-size="14.00">1</text>
</g>
<!-- 2&#45;&gt;1 -->
<g id="edge1" class="edge">
<title>2&#45;&gt;1</title>
<path fill="none" stroke="black" d="M52.91,-87.99C49.49,-82.15 45.82,-75.41 43,-69 39.73,-61.58 36.8,-53.27 34.37,-45.59"/>
<polygon fill="black" stroke="black" points="37.72,-44.55 31.48,-35.99 31.01,-46.58 37.72,-44.55"/>
<text text-anchor="middle" x="60" y="-57.8" font-family="Times,serif" font-size="14.00"> 85/9</text>
</g>
<!-- 0 -->
<g id="node3" class="node">
<title>0</title>
<ellipse fill="none" stroke="black" cx="99" cy="-18" rx="27" ry="18"/>
<text text-anchor="middle" x="99" y="-14.3" font-family="Times,serif" font-size="14.00">0</text>
</g>
<!-- 2&#45;&gt;0 -->
<g id="edge2" class="edge">
<title>2&#45;&gt;0</title>
<path fill="none" stroke="black" d="M70.11,-87.21C75.22,-75.14 82.21,-58.64 88.03,-44.89"/>
<polygon fill="black" stroke="black" points="91.35,-46.04 92.02,-35.47 84.9,-43.31 91.35,-46.04"/>
<text text-anchor="middle" x="103.5" y="-57.8" font-family="Times,serif" font-size="14.00"> 97/11</text>
</g>
</g>
</svg>
